HIERARCHY
ROOT SpineBase
{
  OFFSET 0.000000 0.000000 0.000000
  CHANNELS 6 Xposition Yposition Zposition Zrotation Xrotation Yrotation
  JOINT SpineMid
  {
    OFFSET 0.000000 29.027858 0.000000
    CHANNELS 3 Zrotation Xrotation Yrotation
    JOINT SpineShoulder
    {
      OFFSET 0.239792 21.643354 -0.791200
      CHANNELS 3 Zrotation Xrotation Yrotation
      JOINT Neck
      {
        OFFSET 0.112446 7.182913 -0.599692
        CHANNELS 3 Zrotation Xrotation Yrotation
        JOINT Head
        {
          OFFSET 1.983409 11.898091 0.577819
          CHANNELS 3 Zrotation Xrotation Yrotation
          End Site
          {
            OFFSET 0 0 0
          }
        }
      }
      JOINT ShoulderLeft
      {
        OFFSET -13.256940 -1.377059 -11.045662
        CHANNELS 3 Zrotation Xrotation Yrotation
        JOINT ElbowLeft
        {
          OFFSET -5.712058 -23.583986 -3.945006
          CHANNELS 3 Zrotation Xrotation Yrotation
          JOINT WristLeft
          {
            OFFSET 1.914207 -24.291618 -5.739744
            CHANNELS 3 Zrotation Xrotation Yrotation
            JOINT HandLeft
            {
              OFFSET 0.677253 -9.318639 -1.188948
              CHANNELS 3 Zrotation Xrotation Yrotation
              JOINT HandTipLeft
              {
                OFFSET 2.068065 -7.009135 -1.595537
                CHANNELS 3 Zrotation Xrotation Yrotation
                End Site
                {
                  OFFSET 0 0 0
                }
              }
              JOINT ThumbLeft
              {
                OFFSET 2.867417 1.854914 3.179348
                CHANNELS 3 Zrotation Xrotation Yrotation
                End Site
                {
                  OFFSET 0 0 0
                }
              }
            }
          }
        }
      }
      JOINT ShoulderRight
      {
        OFFSET 15.364171 -3.001471 8.210047
        CHANNELS 3 Zrotation Xrotation Yrotation
        JOINT ElbowRight
        {
          OFFSET 0.387017 -26.363563 1.962015
          CHANNELS 3 Zrotation Xrotation Yrotation
          JOINT WristRight
          {
            OFFSET -0.309769 -24.939060 -9.161773
            CHANNELS 3 Zrotation Xrotation Yrotation
            JOINT HandRight
            {
              OFFSET -1.499262 -5.975422 -2.155762
              CHANNELS 3 Zrotation Xrotation Yrotation
              JOINT HandTipRight
              {
                OFFSET 0.140389 -6.896021 -1.207348
                CHANNELS 3 Zrotation Xrotation Yrotation
                End Site
                {
                  OFFSET 0 0 0
                }
              }
              JOINT ThumbRight
              {
                OFFSET -2.840700 3.385450 -1.748639
                CHANNELS 3 Zrotation Xrotation Yrotation
                End Site
                {
                  OFFSET 0 0 0
                }
              }
            }
          }
        }
      }
    }
  }
  JOINT HipLeft
  {
    OFFSET -5.247362 2.272497 -6.756985
    CHANNELS 3 Zrotation Xrotation Yrotation
    JOINT KneeLeft
    {
      OFFSET -9.991467 -40.241610 4.225114
      CHANNELS 3 Zrotation Xrotation Yrotation
      JOINT AnkleLeft
      {
        OFFSET -5.620222 -33.713576 9.068711
        CHANNELS 3 Zrotation Xrotation Yrotation
        JOINT FootLeft
        {
          OFFSET 0.674841 -7.431772 -6.865768
          CHANNELS 3 Zrotation Xrotation Yrotation
          End Site
          {
            OFFSET 0 0 0
          }
        }
      }
    }
  }
  JOINT HipRight
  {
    OFFSET 6.277557 0.033597 -0.059681
    CHANNELS 3 Zrotation Xrotation Yrotation
    JOINT KneeRight
    {
      OFFSET -5.143669 -40.981908 9.492231
      CHANNELS 3 Zrotation Xrotation Yrotation
      JOINT AnkleRight
      {
        OFFSET -4.987205 -32.053899 5.999511
        CHANNELS 3 Zrotation Xrotation Yrotation
        JOINT FootRight
        {
          OFFSET 4.548789 -7.391948 -3.494802
          CHANNELS 3 Zrotation Xrotation Yrotation
          End Site
          {
            OFFSET 0 0 0
          }
        }
      }
    }
  }
}
MOTION
Frames: 12
Frame Time: 0.033333
-46.245129 80.394158 306.614037 -0.000000 0.000000 -30.161518 -0.000000 0.000000 30.161518 -0.000000 0.000000 0.000000 -0.000000 0.000000 0.000000 0.000000 0.000000 0.000000 -0.000000 0.000000 0.000000 -0.000000 0.000000 0.000000 -0.000000 0.000000 0.000000 -0.000000 0.000000 0.000000 0.000000 0.000000 0.000000 0.000000 0.000000 0.000000 -0.000000 0.000000 0.000000 -0.000000 0.000000 0.000000 -0.000000 0.000000 0.000000 -0.000000 0.000000 0.000000 0.000000 0.000000 0.000000 0.000000 0.000000 0.000000 -0.000000 0.000000 30.161518 -0.000000 0.000000 0.000000 -0.000000 0.000000 0.000000 0.000000 0.000000 0.000000 -0.000000 0.000000 30.161518 -0.000000 0.000000 0.000000 -0.000000 0.000000 0.000000 0.000000 0.000000 0.000000
-46.337359 80.355170 306.523367 -0.156954 0.056110 -30.248247 0.163850 0.030595 30.248280 -0.000000 0.000000 0.000000 -0.000000 0.000000 0.000000 0.000000 0.000000 0.000000 -0.000000 0.000000 0.000000 -0.000000 0.000000 0.000000 -1.178526 -0.385399 0.118537 0.749605 -0.522056 -0.297374 0.000000 0.000000 0.000000 0.000000 0.000000 0.000000 -0.000000 0.000000 0.000000 -0.000000 0.000000 0.000000 0.737679 -0.336010 -0.180149 -1.158945 1.752483 0.293559 0.000000 0.000000 0.000000 0.000000 0.000000 0.000000 0.163850 0.030595 30.248280 -0.000000 0.000000 0.000000 3.099038 -1.307182 -2.970403 0.000000 0.000000 0.000000 0.163850 0.030595 30.248280 -0.000000 0.000000 0.000000 0.290142 1.650755 0.867266 0.000000 0.000000 0.000000
-46.415298 80.312520 306.446247 -0.289065 0.101375 -30.315279 0.300708 0.058395 30.315382 -0.000000 0.000000 0.000000 -0.000000 0.000000 0.000000 0.000000 0.000000 0.000000 -0.000000 0.000000 0.000000 -0.000000 0.000000 0.000000 -2.083501 -0.747344 0.198381 1.290334 -0.986006 -0.559432 0.000000 0.000000 0.000000 0.000000 0.000000 0.000000 -0.000000 0.000000 0.000000 -0.000000 0.000000 0.000000 1.327673 -0.582515 -0.327654 -2.163321 3.200722 0.564143 0.000000 0.000000 0.000000 0.000000 0.000000 0.000000 0.300708 0.058395 30.315382 -0.000000 0.000000 0.000000 5.472871 -2.787987 -5.271818 0.000000 0.000000 0.000000 0.300708 0.058395 30.315382 -0.000000 0.000000 0.000000 0.465065 3.000068 1.590750 0.000000 0.000000 0.000000
-46.478946 80.266209 306.382678 -0.396346 0.135805 -30.362708 0.410629 0.083165 30.362880 -0.000000 0.000000 0.000000 -0.000000 0.000000 0.000000 0.000000 0.000000 0.000000 -0.000000 0.000000 0.000000 -0.000000 0.000000 0.000000 -2.709820 -1.083103 0.242176 1.615026 -1.399422 -0.783053 0.000000 0.000000 0.000000 0.000000 0.000000 0.000000 -0.000000 0.000000 0.000000 -0.000000 0.000000 0.000000 1.784097 -0.745581 -0.447820 -3.018160 4.337463 0.806774 0.000000 0.000000 0.000000 0.000000 0.000000 0.000000 0.410629 0.083165 30.362880 -0.000000 0.000000 0.000000 7.067366 -4.335446 -6.856793 0.000000 0.000000 0.000000 0.410629 0.083165 30.362880 -0.000000 0.000000 0.000000 0.538665 4.060612 2.182888 0.000000 0.000000 0.000000
-46.528304 80.216236 306.332659 -0.478827 0.159417 -30.390606 0.493681 0.104725 30.390821 -0.000000 0.000000 0.000000 -0.000000 0.000000 0.000000 0.000000 0.000000 0.000000 -0.000000 0.000000 0.000000 -0.000000 0.000000 0.000000 -3.054162 -1.390787 0.252485 1.718963 -1.768899 -0.965722 0.000000 0.000000 0.000000 0.000000 0.000000 0.000000 -0.000000 0.000000 0.000000 -0.000000 0.000000 0.000000 2.117181 -0.829300 -0.544444 -3.725569 5.156947 1.016550 0.000000 0.000000 0.000000 0.000000 0.000000 0.000000 0.493681 0.104725 30.390821 -0.000000 0.000000 0.000000 7.865660 -5.872791 -7.713887 0.000000 0.000000 0.000000 0.493681 0.104725 30.390821 -0.000000 0.000000 0.000000 0.521261 4.843795 2.653050 0.000000 0.000000 0.000000
-46.563372 80.162601 306.296190 -0.536556 0.172238 -30.399027 0.549946 0.122952 30.399244 -0.000000 0.000000 0.000000 -0.000000 0.000000 0.000000 0.000000 0.000000 0.000000 -0.000000 0.000000 0.000000 -0.000000 0.000000 0.000000 -3.114580 -1.669216 0.231663 1.599410 -2.100291 -1.105484 0.000000 0.000000 0.000000 0.000000 0.000000 0.000000 -0.000000 0.000000 0.000000 -0.000000 0.000000 0.000000 2.333840 -0.835955 -0.620118 -4.285509 5.655156 1.188874 0.000000 0.000000 0.000000 0.000000 0.000000 0.000000 0.549946 0.122952 30.399244 0.031307 -0.824822 0.145875 7.807009 -6.559035 -8.107190 0.000000 0.000000 0.000000 0.549946 0.122952 30.399244 -0.000000 0.000000 0.000000 0.420038 5.358861 3.007804 0.000000 0.000000 0.000000
-46.598380 80.107668 306.260582 -0.589016 0.202910 -30.355226 0.610808 0.122576 30.355616 -0.000000 0.000000 0.000000 -0.000000 0.000000 0.000000 0.000000 0.000000 0.000000 -0.000000 0.000000 0.000000 -0.000000 0.000000 0.000000 -2.546804 -2.012772 0.134470 1.733714 -2.083114 -1.259589 0.000000 0.000000 0.000000 0.000000 0.000000 0.000000 -0.000000 0.000000 0.000000 -0.000000 0.000000 0.000000 2.452885 0.039069 -0.900412 -3.827147 3.136907 1.230895 0.000000 0.000000 0.000000 0.000000 0.000000 0.000000 0.610808 0.122576 30.355616 -0.013714 -0.861192 0.139491 6.472538 -9.945391 -7.181900 0.000000 0.000000 0.000000 0.610808 0.122576 30.355616 -0.000000 0.000000 0.000000 -0.474877 5.273267 3.426781 0.000000 0.000000 0.000000
-46.618357 80.050006 306.235169 -0.618077 0.219657 -30.323718 0.644415 0.122458 30.324214 -0.000000 0.000000 0.000000 -0.000000 0.000000 0.000000 0.000000 0.000000 0.000000 -0.000000 0.000000 0.000000 -0.000000 0.000000 0.000000 -2.009776 -2.287757 0.050218 0.433111 -3.371363 -1.480067 0.000000 0.000000 0.000000 0.000000 0.000000 0.000000 -0.000000 0.000000 0.000000 -0.000000 0.000000 0.000000 2.383954 -0.028762 -0.856907 -3.469566 4.198364 1.160157 0.000000 0.000000 0.000000 0.000000 0.000000 0.000000 0.644415 0.122458 30.324214 -0.015159 -0.892492 0.144285 3.551437 -13.058256 -4.860811 0.000000 0.000000 0.000000 0.644415 0.122458 30.324214 -0.000000 0.000000 0.000000 -1.028396 5.300264 3.735323 0.000000 0.000000 0.000000
-46.597611 79.977734 306.256843 -0.580658 0.168774 -30.303620 0.586478 0.147279 30.303722 -0.000000 0.000000 0.000000 -0.000000 0.000000 0.000000 0.000000 0.000000 0.000000 -0.000000 0.000000 0.000000 -0.000000 0.000000 0.000000 -1.250976 -1.891920 0.001452 -0.321149 -3.570149 -1.340651 0.000000 0.000000 0.000000 0.000000 0.000000 0.000000 -0.000000 0.000000 0.000000 -0.000000 0.000000 0.000000 2.377310 -0.094560 -0.836691 -5.860331 3.242355 1.604344 0.000000 0.000000 0.000000 0.000000 0.000000 0.000000 0.586478 0.147279 30.303722 0.017309 -0.875179 0.150383 -0.592588 -15.913349 -1.445462 0.000000 0.000000 0.000000 0.586478 0.147279 30.303722 -0.000000 0.000000 0.000000 -1.169184 4.903766 3.571287 0.000000 0.000000 0.000000
-46.549740 79.916208 306.298194 -0.498438 0.081125 -30.268651 0.471379 0.181175 30.268259 -0.000000 0.000000 0.000000 -0.000000 0.000000 0.000000 0.000000 0.000000 0.000000 -0.000000 0.000000 0.000000 -0.000000 0.000000 0.000000 -0.546899 -1.747357 -0.065715 -1.080531 -3.869786 -1.288441 0.000000 0.000000 0.000000 0.000000 0.000000 0.000000 -0.000000 0.000000 0.000000 -0.000000 0.000000 0.000000 1.994348 0.050317 -0.736165 -4.720374 4.216622 1.384553 0.000000 0.000000 0.000000 0.000000 0.000000 0.000000 0.471379 0.181175 30.268259 0.036764 -0.877098 0.156077 -0.102926 -10.035347 -1.212256 0.000000 0.000000 0.000000 0.471379 0.181175 30.268259 -0.000000 0.000000 0.000000 -0.924796 4.411377 3.146364 0.000000 0.000000 0.000000
-46.518992 79.832739 306.305552 -0.452064 0.008313 -30.238464 0.394743 0.220476 30.237738 -0.000000 0.000000 0.000000 -0.000000 0.000000 0.000000 0.000000 0.000000 0.000000 -0.000000 0.000000 0.000000 -0.000000 0.000000 0.000000 0.137993 -1.611183 -0.132997 -1.646288 -4.338838 -1.331851 0.000000 0.000000 0.000000 0.000000 0.000000 0.000000 -0.000000 0.000000 0.000000 -0.000000 0.000000 0.000000 2.168500 0.393900 -0.891824 -4.444041 6.342777 1.508143 0.000000 0.000000 0.000000 0.000000 0.000000 0.000000 0.394743 0.220476 30.237738 0.068036 -0.834935 0.157694 -0.404086 -10.467246 -1.008748 0.000000 0.000000 0.000000 0.394743 0.220476 30.237738 -0.000000 0.000000 0.000000 -0.148921 3.885700 2.430122 0.000000 0.000000 0.000000
-46.484759 79.755237 306.293309 -0.395319 -0.046887 -30.322495 0.317569 0.240055 30.321668 -0.000000 0.000000 0.000000 -0.000000 0.000000 0.000000 0.000000 0.000000 0.000000 -0.000000 0.000000 0.000000 -0.000000 0.000000 0.000000 0.750216 -1.331393 -0.183954 -2.680378 -4.008939 -0.993307 0.000000 0.000000 0.000000 0.000000 0.000000 0.000000 -0.000000 0.000000 0.000000 -0.000000 0.000000 0.000000 1.805709 0.763781 -0.856489 -0.903351 7.608550 0.773228 0.000000 0.000000 0.000000 0.000000 0.000000 0.000000 0.317569 0.240055 30.321668 0.100766 -0.795535 0.160151 -0.423666 -10.224232 -0.991423 0.000000 0.000000 0.000000 0.317569 0.240055 30.321668 -0.000000 0.000000 0.000000 0.234886 3.233729 1.845669 0.000000 0.000000 0.000000
